<?xml version="1.0" standalone="no"?>
<!DOCTYPE svg PUBLIC "-//W3C//DTD SVG 20010904//EN"
 "http://www.w3.org/TR/2001/REC-SVG-20010904/DTD/svg10.dtd">
<svg version="1.0" xmlns="http://www.w3.org/2000/svg"
 width="500.000000pt" height="500.000000pt" viewBox="0 0 500.000000 500.000000"
 preserveAspectRatio="xMidYMid meet">
<metadata>
Created by potrace 1.14, written by Peter Selinger 2001-2017
</metadata>
<g transform="translate(0.000000,500.000000) scale(0.100000,-0.100000)"
fill="#000000" stroke="none">
<path d="M3367 3586 c-107 -53 -161 -137 -161 -256 -1 -62 4 -85 27 -132 16
-32 44 -71 63 -86 l35 -29 -78 -28 c-95 -33 -151 -61 -264 -131 -139 -86 -228
-162 -413 -354 -228 -236 -366 -369 -451 -433 -109 -83 -301 -180 -410 -208
-106 -27 -240 -29 -315 -4 -99 33 -189 105 -230 185 -11 22 -22 40 -25 40 -7
0 25 -101 48 -150 25 -55 96 -158 129 -185 49 -43 115 -83 173 -105 50 -20 81
-24 185 -26 125 -2 155 2 283 38 98 27 311 146 404 225 12 10 41 34 65 53 23
19 62 52 85 73 l41 38 105 -45 c58 -25 108 -46 112 -46 4 0 21 -6 38 -14 195
-89 496 -126 672 -82 284 72 432 255 449 554 3 60 -9 79 -17 28 -16 -98 -119
-227 -221 -275 -203 -95 -517 -68 -816 71 l-84 40 44 39 c157 140 293 248 385
306 53 34 167 88 230 111 98 34 253 40 346 12 96 -29 167 -83 203 -153 26 -50
30 -69 29 -135 0 -43 -7 -96 -16 -120 -20 -56 1 -41 42 32 57 100 70 149 68
260 -2 96 -4 107 -40 178 -42 87 -105 149 -189 191 -68 34 -134 57 -165 57
-14 0 -23 3 -21 8 2 4 16 32 32 62 25 47 30 67 30 130 1 122 -55 216 -159 265
-74 34 -178 35 -248 1z"/>
<path d="M1813 3271 c-116 -30 -214 -152 -215 -269 0 -59 18 -128 43 -163 10
-15 19 -29 19 -32 0 -2 -48 -5 -107 -6 -248 -3 -406 -62 -531 -196 -91 -97
-125 -184 -123 -309 2 -117 44 -207 143 -308 68 -69 106 -91 68 -40 -43 58
-69 143 -66 212 4 82 30 134 100 197 108 99 222 135 406 129 161 -6 301 -41
514 -130 l104 -44 116 118 c64 65 116 121 116 124 0 11 -176 95 -342 163 l-37
16 37 27 c171 123 147 394 -44 489 -51 26 -146 36 -201 22z"/>
</g>
</svg>
